<svg xmlns="http://www.w3.org/2000/svg" version="1.1" viewBox="-5.0 -10.0 110.0 135.0">
 <path d="m61.094 36.699c0.19922 1.2422 0.30078 2.5156 0.30078 3.8125 0 13.367-10.852 24.219-24.219 24.219-13.367 0-24.219-10.852-24.219-24.219 0-13.367 10.852-24.219 24.219-24.219 11.199 0 20.633 7.6172 23.398 17.949 0.87891-0.097657 1.7695-0.14844 2.6758-0.14844 13.367 0 24.219 10.852 24.219 24.219s-10.852 24.219-24.219 24.219c-9.7148 0-18.105-5.7344-21.961-14l2.2656-1.0586c3.457 7.4141 10.98 12.559 19.695 12.559 11.984 0 21.719-9.7305 21.719-21.719s-9.7344-21.719-21.719-21.719c-0.72656 0-1.4453 0.035156-2.1562 0.10547zm-4.4922-5.9062c-3.5703-7.1133-10.93-12-19.426-12-11.984 0-21.719 9.7305-21.719 21.719 0 6.8398 3.1719 12.949 8.1211 16.93-1.3906-1.2031-2.6328-2.5742-3.6953-4.082 3.9727 3.5078 9.1914 5.6367 14.906 5.6367 12.434 0 22.531-10.098 22.531-22.535 0-1.957-0.25-3.8555-0.71875-5.668zm-18.703-5.3008 4.2539 3.0078 5.1328 0.88281c0.52344 0.089844 0.92969 0.49609 1.0195 1.0195l0.88281 5.1328 3.0078 4.2539c0.30469 0.43359 0.30469 1.0117 0 1.4453l-3.0078 4.2539-0.88281 5.1328c-0.089844 0.52344-0.49609 0.92969-1.0195 1.0195l-5.1328 0.88281-4.2539 3.0078c-0.43359 0.30469-1.0117 0.30469-1.4453 0l-4.2539-3.0078-5.1328-0.88281c-0.52344-0.089844-0.92969-0.49609-1.0195-1.0195l-0.88281-5.1328-3.0078-4.2539c-0.30469-0.43359-0.30469-1.0117 0-1.4453l3.0078-4.2539 0.88281-5.1328c0.089844-0.52344 0.49609-0.92969 1.0195-1.0195l5.1328-0.88281 4.2539-3.0078c0.43359-0.30469 1.0117-0.30469 1.4453 0zm-0.72266 2.5508-3.7656 2.6602c-0.14844 0.10938-0.32422 0.17969-0.50781 0.21094 0 0-4.543 0.78125-4.543 0.78125l-0.78125 4.543c-0.03125 0.18359-0.10156 0.35547-0.21094 0.50781 0 0-2.6602 3.7656-2.6602 3.7656l2.6602 3.7656c0.10937 0.14844 0.17969 0.32422 0.21094 0.50781l0.78125 4.543 4.543 0.78125c0.18359 0.03125 0.35938 0.10156 0.50781 0.21094l3.7656 2.6602 3.7656-2.6602c0.15234-0.10937 0.32422-0.17969 0.50781-0.21094 0 0 4.543-0.78125 4.543-0.78125l0.78125-4.543c0.03125-0.18359 0.10156-0.35938 0.21094-0.50781 0 0 2.6602-3.7656 2.6602-3.7656l-2.6602-3.7656c-0.10938-0.15234-0.17969-0.32422-0.21094-0.50781l-0.78125-4.543-4.543-0.78125c-0.18359-0.03125-0.35547-0.10156-0.50781-0.21094zm0 5.4727c3.8633 0 6.9961 3.1367 6.9961 6.9961s-3.1328 6.9961-6.9961 6.9961c-3.8594 0-6.9961-3.1367-6.9961-6.9961s3.1367-6.9961 6.9961-6.9961zm0 2.5c-2.4805 0-4.4961 2.0156-4.4961 4.4961s2.0156 4.4961 4.4961 4.4961 4.4961-2.0156 4.4961-4.4961-2.0156-4.4961-4.4961-4.4961zm16.988-17.223v-2.5h16.883c6.4336 0 11.645 5.2148 11.645 11.648v6.8242h-2.4961v-6.8242c0-5.0547-4.0977-9.1484-9.1484-9.1484zm-11.242 59.715v2.4961h-16.883c-3.0898 0-6.0508-1.2266-8.2383-3.4102-2.1836-2.1836-3.4102-5.1445-3.4102-8.2344v-11.047h2.5v11.047c0 2.4258 0.96484 4.7539 2.6797 6.4688 1.7148 1.7148 4.043 2.6797 6.4688 2.6797zm22.953-33.371c6.125 1.4102 10.699 6.9023 10.699 13.453 0 7.6172-6.1836 13.805-13.805 13.805-5.0273 0-9.4336-2.6953-11.848-6.7188-0.25781-0.42969-0.23438-0.97266 0.0625-1.3789 0.29297-0.40234 0.80078-0.59375 1.293-0.48047 0.81641 0.1875 1.668 0.28516 2.543 0.28516 6.2383 0 11.305-5.0625 11.305-11.305 0-2.1172-0.58594-4.1016-1.6016-5.8008-0.25781-0.42969-0.23438-0.97266 0.0625-1.3789 0.29297-0.40234 0.80078-0.59375 1.2891-0.48047zm6.375 7.2969c-1.0664-1.6406-2.5469-2.9883-4.293-3.8906 0.43359 1.3398 0.66797 2.7695 0.66797 4.2539 0 2.8086-0.83984 5.4258-2.2812 7.6055 3.0938-2.1133 4.9883-4.9414 5.9062-7.9688z" fill-rule="evenodd"/></svg>