<svg xmlns="http://www.w3.org/2000/svg">
    <defs>
        <symbol id="icon-solelogo" viewBox="0 0 100 100">
            <path
                d="m87.273 52.727c-0.21484-0.28516-0.55078-0.45312-0.91016-0.45312h-51.742c0.66406-0.48828 1.3945-0.90234 2.1719-1.2188 0.42578-0.17578 0.70703-0.58984 0.70703-1.0508 0-0.46094-0.28125-0.87891-0.70703-1.0508-0.83594-0.33984-1.6133-0.79297-2.3164-1.3281 3.1484-0.25 5.2539-0.90625 7.1328-1.5039 2.8828-0.92188 5.1602-1.6484 10.461-0.67578 17.598 3.2188 28.586 2.7578 33.598-1.4141 1.9727-1.6445 2.9727-3.8359 2.9727-6.5195 0-11.535-6.4922-12.719-14.711-14.215-2.3281-0.42578-4.9688-0.90625-7.7188-1.6562-3.2812-0.89453-6.5859-2.8789-9.6562-5.2891-0.023438-0.03125-0.035157-0.070312-0.066407-0.097656-0.10938-0.10938-0.23438-0.1875-0.36719-0.24219-7.9219-6.3711-14.188-15.391-14.277-15.52-0.26953-0.39063-0.75781-0.57031-1.2109-0.45703-5.2852 1.3203-3.4805 11.922-3.1367 13.691-0.042969 0.55078-0.50781 3.3203-5.6758 3.3203-3.5352 0-5.7031-2.5195-6.8984-4.6328-1.1562-2.0469-3.3047-3.3203-5.6016-3.3203-0.33203 0-0.64844 0.14453-0.86328 0.39844-6.3008 7.3477-5.2695 18.973-4.8984 21.863-0.88281 0.91016-2.1953 3.1484-2.1953 8.4219 0 6.2969 6.4531 7.5586 13.242 7.8555-0.70312 0.53516-1.4766 0.98047-2.3086 1.3203-0.42578 0.17578-0.70703 0.58984-0.70703 1.0508 0 0.46094 0.28125 0.87891 0.70703 1.0508 0.77734 0.31641 1.5078 0.73047 2.1719 1.2188h-10.832c-0.35547 0-0.69531 0.16797-0.91016 0.45312l-10.227 13.637c-0.37891 0.50391-0.27344 1.2148 0.22656 1.5898 0.20313 0.15234 0.44141 0.22656 0.67969 0.22656 0.34766 0 0.6875-0.15625 0.91016-0.45313l8.1836-10.91v42.047c0 0.62891 0.50781 1.1367 1.1367 1.1367h72.727c0.62891 0 1.1367-0.50781 1.1367-1.1367v-42.047l8.1836 10.91c0.22266 0.29688 0.5625 0.45313 0.91016 0.45313 0.23828 0 0.47656-0.074219 0.67969-0.22656 0.50391-0.375 0.60547-1.0898 0.22656-1.5898zm-36.32 13.184h-26.523l-8.5234-11.363h10.762c0.95312 1.3672 1.5664 2.9609 1.7422 4.6602 0.058594 0.57812 0.54688 1.0195 1.1289 1.0195 0.58203 0 1.0703-0.44141 1.1289-1.0195 0.17578-1.7031 0.78906-3.293 1.7422-4.6602h51.516l-9.4688 11.363h-23.512zm-3.9688 2.2734-32.211 18.492v-29.855l8.1836 10.91c0.21484 0.28516 0.55078 0.45312 0.91016 0.45312h23.121zm-18.816-20.891c0.53906-0.69141 1.0039-1.4375 1.3789-2.2266 0.375 0.78906 0.83594 1.5352 1.3789 2.2266 0.83203 1.0586 1.8438 1.9766 2.9844 2.707-1.1445 0.73438-2.1523 1.6484-2.9844 2.707-0.53906 0.69141-1.0039 1.4375-1.3789 2.2266-0.375-0.78906-0.83594-1.5352-1.3789-2.2266-0.83203-1.0586-1.8438-1.9766-2.9844-2.707 1.1445-0.73438 2.1523-1.6484 2.9844-2.707zm56.043-5.0195c-4.3945 3.6641-15.074 3.9766-31.734 0.92578-4.1484-0.75781-6.7461-0.53516-8.9492-0.011719-3.7578-2.3359-5.2969-5.1914-5.8242-6.4531 0.75-0.12109 1.5-0.24219 2.2891-0.39453 6.4961-1.2734 10.656-0.34375 15.922 0.83203 4.6797 1.0469 10.156 2.2695 18.66 2.2695 3.3672 0 7.2188-0.19531 11.676-0.66797-0.24609 1.4062-0.91797 2.5586-2.043 3.4961zm-44.656-8.1602c-0.57813 0.11328-1.125 0.19922-1.6797 0.29297l2.8906-10.715 3.2969 0.89453-2.4844 9.1953c-0.65625 0.089844-1.3242 0.19922-2.0234 0.33594zm14.148 0.25391c-1.125-0.23047-2.2422-0.43359-3.3789-0.59375l1.8047-6.6758 3.2969 0.89453zm29.871-5.4766c-6.6172 1.8828-14.781-0.10156-18.07-1.0781l2.4492-3.2695c0.027344-0.039063 0.035156-0.082031 0.058594-0.125 1.9531 0.44922 3.8125 0.79297 5.5039 1.1016 4.4922 0.81641 7.8867 1.4375 10.059 3.3672zm-43.035-26.312c0.90234 1.2461 2.8047 3.7852 5.375 6.707l-6.3984 2.7422c-0.46484-3.25-0.61328-8.0586 1.0195-9.4453zm-20.711 8.8164c1.2852 0.16406 2.4453 0.95312 3.1172 2.1328 1.4922 2.6406 4.2461 5.7891 8.875 5.7891 6.0508 0 7.4961-3.3242 7.8398-4.8828l7.3789-3.1641c0.16406-0.070312 0.29297-0.17969 0.40234-0.30469 0.73828 0.79688 1.5195 1.6094 2.3398 2.418l-1.7188 1.7188c-0.44531 0.44531-0.44531 1.1641 0 1.6055 0.22266 0.22266 0.51172 0.33203 0.80469 0.33203 0.28906 0 0.58203-0.10937 0.80469-0.33203l1.7539-1.7539c0.8125 0.75391 1.6562 1.4961 2.5234 2.2148l-1.3398 1.3398c-0.44531 0.44531-0.44531 1.1641 0 1.6055 0.22266 0.22266 0.51172 0.33203 0.80469 0.33203 0.28906 0 0.58203-0.10937 0.80469-0.33203l1.5234-1.5234c0.91406 0.69141 1.8438 1.3438 2.793 1.9492l-1.3789 1.3789c-0.44531 0.44531-0.44531 1.1641 0 1.6055 0.22266 0.22266 0.51172 0.33203 0.80469 0.33203 0.28906 0 0.58203-0.10938 0.80469-0.33203l1.793-1.793c1.6602 0.89844 3.3555 1.625 5.0586 2.0859 0.011718 0.003906 0.023437 0.007813 0.039062 0.007813l-2.9219 3.8945c-0.21484 0.28906-0.28125 0.66016-0.17969 1.0078 0.10156 0.34375 0.36328 0.62109 0.69922 0.74219 0.37891 0.13672 6.9297 2.4805 14.07 2.4805 2.5938 0 5.2539-0.33203 7.7344-1.168 0.75781 1.3945 1.2031 3.2188 1.293 5.6953-15.57 1.6836-23.523-0.09375-29.938-1.5273-0.16016-0.035157-0.32031-0.070313-0.48047-0.10547l1.9883-7.3594c0.16406-0.60547-0.19531-1.2305-0.80078-1.3945l-5.4883-1.4883c-0.28906-0.078124-0.60156-0.039062-0.86328 0.11328-0.26172 0.14844-0.45312 0.39844-0.53125 0.6875l-2.1992 8.1328c-0.68359-0.046875-1.375-0.078125-2.0898-0.078125-0.62891 0-1.2812 0.027344-1.9453 0.070313l2.5508-9.4492c0.16406-0.60547-0.19531-1.2305-0.80078-1.3945l-5.4883-1.4883c-0.28906-0.078124-0.60156-0.039062-0.86328 0.11328-0.26172 0.14844-0.45312 0.39844-0.53125 0.6875l-3.4492 12.773c-2.6328 0.33984-4.9766 0.46484-7.0391 0.42969-0.55078-11.773-9.4023-16.801-11.57-17.855 0.64844-2.1133 1.6094-4.1758 3.0156-5.9492zm-3.9336 20.301c-0.003906-0.019531 0-0.039062-0.003906-0.0625-0.015625-0.085937-0.94141-5.9414 0.33984-12.043 2.3242 1.1836 9.2773 5.5703 9.8398 15.516-6.0234-0.47266-9.2109-2.2891-10.168-3.1797 0.003906-0.042969-0.003906-0.085937-0.003906-0.12891 0-0.035156 0-0.066406-0.003907-0.10156zm-2.2578 8.0781c0-3.2266 0.52734-5.0156 0.99609-5.9727 4.9062 4.0195 14.469 4.043 20.762 3.2656 0.37891 1.1016 1.6992 4.168 5.3242 6.9453-2.1484 0.68359-4.4219 1.3672-8.3047 1.4336-0.94922-1.3633-1.5625-2.9531-1.7383-4.6523-0.058593-0.57812-0.54688-1.0195-1.1289-1.0195s-1.0703 0.44141-1.1289 1.0195c-0.17578 1.6875-0.77734 3.2656-1.7188 4.625-9.5039-0.21094-13.062-1.75-13.062-5.6445zm1.1367 57.953v-8.4336l36.598-21.008c0.046875-0.027344 0.074218-0.070312 0.11719-0.10156h23.512c0.33594 0 0.65625-0.14844 0.875-0.41016l9.3555-11.227v8.6992l-57.117 32.48zm17.934 0 52.52-29.863v29.863zm45.703-12.5h-11.363c-0.62891 0-1.1367 0.50781-1.1367 1.1367v6.8164c0 0.62891 0.50781 1.1367 1.1367 1.1367h11.363c0.62891 0 1.1367-0.50781 1.1367-1.1367v-6.8164c0-0.62891-0.50781-1.1367-1.1367-1.1367zm-1.1367 6.8203h-9.0898v-4.5469h9.0898zm4.1172-80.77c1.6172 0.66016 3.0312 1.7188 4.082 3.0586 1.1367 1.4531 1.8438 3.2148 2.0352 5.0977 0.058594 0.57812 0.54688 1.0195 1.1289 1.0195s1.0703-0.44141 1.1289-1.0195c0.19531-1.8828 0.89844-3.6445 2.0352-5.0977 1.0508-1.3398 2.4609-2.3984 4.082-3.0586 0.42578-0.17578 0.70703-0.58984 0.70703-1.0508 0-0.46094-0.28125-0.87891-0.70703-1.0508-1.6172-0.66016-3.0312-1.7188-4.082-3.0586-1.1367-1.4531-1.8438-3.2148-2.0352-5.0977-0.058594-0.57812-0.54688-1.0195-1.1289-1.0195s-1.0703 0.44141-1.1289 1.0195c-0.19531 1.8828-0.89844 3.6445-2.0352 5.0977-1.0508 1.3398-2.4609 2.3984-4.082 3.0586-0.42578 0.17578-0.70703 0.58984-0.70703 1.0508 0 0.46094 0.28125 0.87891 0.70703 1.0508zm5.8672-3.7578c0.53906-0.69141 1.0039-1.4375 1.3789-2.2266 0.375 0.78906 0.83594 1.5352 1.3789 2.2266 0.83203 1.0586 1.8438 1.9766 2.9844 2.707-1.1445 0.73438-2.1523 1.6484-2.9844 2.707-0.53906 0.69141-1.0039 1.4375-1.3789 2.2266-0.375-0.78906-0.83594-1.5352-1.3789-2.2266-0.83203-1.0586-1.8438-1.9766-2.9844-2.707 1.1445-0.73437 2.1523-1.6484 2.9844-2.707zm-81.852 43.582-4.5469-1.1367c-0.60938-0.15234-0.98047-0.76953-0.82812-1.3789 0.15234-0.60938 0.76953-0.98047 1.3789-0.82813l4.5469 1.1367c0.60938 0.15234 0.98047 0.76953 0.82812 1.3789-0.12891 0.51562-0.58984 0.85937-1.1016 0.85937-0.089844 0-0.18359-0.011718-0.27734-0.035156zm-1.7695-9.5117c-0.37891-0.50391-0.27344-1.2148 0.22656-1.5898 0.5-0.37891 1.2148-0.27344 1.5898 0.22656l3.4102 4.5469c0.37891 0.50391 0.27344 1.2148-0.22656 1.5898-0.20312 0.15234-0.44141 0.22656-0.67969 0.22656-0.34766 0-0.6875-0.15625-0.91016-0.45312zm95.504 8.375-4.5469 1.1367c-0.09375 0.023438-0.18359 0.035157-0.27734 0.035157-0.50781 0-0.97266-0.34375-1.1016-0.85938-0.15234-0.60938 0.21875-1.2266 0.82812-1.3789l4.5469-1.1367c0.60547-0.15234 1.2266 0.21875 1.3789 0.82812s-0.21875 1.2266-0.82812 1.3789zm-3.0039-9.9648c0.50391 0.375 0.60547 1.0898 0.22656 1.5898l-3.4102 4.5469c-0.22266 0.29688-0.5625 0.45312-0.91016 0.45312-0.23828 0-0.47656-0.074219-0.67969-0.22656-0.50391-0.375-0.60547-1.0898-0.22656-1.5898l3.4102-4.5469c0.375-0.5 1.0898-0.60547 1.5898-0.22656z" />
        </symbol>
        <symbol id="icon-nikelogo" viewBox="0 0 512 640">
            <path
                d="M182.71,327.51h-77.22c-5.93,0-10.74,4.81-10.74,10.74s4.81,10.74,10.74,10.74h77.22c5.93,0,10.74-4.81,10.74-10.74   S188.64,327.51,182.71,327.51z" />
            <path
                d="M488.25,281.48c-0.19-0.24-0.41-0.47-0.65-0.65c-5.99-5.88-13.84-9.9-22.67-11.03l-40-5.1c-6.52-0.83-12.96-2.31-19.2-4.38   l-59-31.82l1.37-0.82c1.66-0.99,2.19-3.14,1.2-4.8c-1-1.66-3.14-2.19-4.8-1.2l-4.94,2.96l-20.02-10.8l1.8-1.08   c1.66-0.99,2.19-3.14,1.2-4.8c-1-1.66-3.14-2.19-4.8-1.2l-5.36,3.22l-15.71-8.47l4.61-2.77c1.66-0.99,2.19-3.14,1.2-4.8   c-1-1.66-3.14-2.2-4.8-1.2l-8.17,4.91l-22.76-12.27l7.13-4.28c1.66-0.99,2.19-3.14,1.2-4.8c-1-1.66-3.14-2.19-4.8-1.2l-10.7,6.42   l-62.78-33.86c-5.14-2.77-11.56-1.51-15.27,2.99l-12.35,14.97c-3.71,4.5-3.73,11.05-0.03,15.56c1.22,1.5,3.43,1.72,4.93,0.49   c1.5-1.22,1.72-3.43,0.49-4.93c-1.58-1.94-1.58-4.74,0.01-6.67l12.35-14.97c1.59-1.93,4.35-2.47,6.55-1.28l59.12,31.88l-4.52,2.71   l-25.07-11.55c-12.05-5.55-25.9-4.56-37.04,2.66l-48.41,31.38c-10.13,6.57-22.87,6.81-33.25,0.63l-15.23-9.07   c-1.66-0.99-3.81-0.45-4.8,1.22c-0.99,1.66-0.45,3.81,1.22,4.8l15.23,9.07c12.68,7.55,28.25,7.26,40.64-0.77l29.65-19.22   l25.96,17.76c3.29,2.25,4.85,6.22,3.97,10.12c-1.07,4.71-5.49,7.94-10.31,7.49l-47.22-4.32c-1.93-0.18-3.63,1.24-3.8,3.17   s1.24,3.63,3.17,3.8l47.22,4.32c0.51,0.05,1.01,0.07,1.51,0.07c7.69,0,14.54-5.36,16.26-12.99c1.52-6.71-1.17-13.56-6.85-17.44   l-23.55-16.11l6.98-4.52l50.76,26.68c3.63,1.91,7.54,2.84,11.43,2.84c5.75,0,11.43-2.04,16.01-6.01l7.26-6.29l3.14,1.44l-0.88,0.53   c-1.66,0.99-2.19,3.14-1.2,4.8c0.66,1.09,1.82,1.7,3,1.7c0.61,0,1.23-0.16,1.8-0.5l4.97-2.98l3.84,1.77l-6.33,8.81   c-2.63,3.66-2.63,8.58,0,12.24l35.35,49.27c4.41,6.15,11.28,9.86,18.83,10.19l83.79,3.66c2.84,0.12,5.66,0.19,8.49,0.19   c20.34,0,40.41-3.22,59.81-9.57c5,5.73,8.02,13.2,8.05,21.28c0.02,6.5-1.93,12.69-5.33,17.9c-10.55,2.6-21.2,4.56-31.93,5.88   c-1.12-11.59-10.91-20.69-22.79-20.69h-76.13c-11.82,0-23.45-2.04-34.57-6.07L96.75,224.45c-7.73-2.8-16.29-1.56-22.9,3.33   l-38.03,28.1c-1.55,1.15-1.88,3.34-0.73,4.89c1.15,1.56,3.34,1.88,4.89,0.73l38.03-28.1c4.72-3.49,10.84-4.38,16.36-2.38   l224.99,81.52c11.88,4.31,24.32,6.49,36.95,6.49h76.13c8.28,0,15.09,6.36,15.82,14.45c-14.8,1.43-29.7,1.65-44.62,0.62l-63.02-4.33   c-7.2-0.49-14.46-1.3-21.6-2.39L204.1,309.78c-8.53-4.02-17.49-7.19-26.78-9.43l-49.95-12.02c-12.7-3.06-26.14-3.15-38.88-0.27   l-31.77,7.18c-2.95,0.67-5.28,2.89-6.07,5.81c-0.8,2.92,0.08,6.02,2.29,8.09l15.23,14.31c1.39,1.31,1.47,3.51,0.18,4.92   l-26.75,29.04c-0.33-0.19-0.66-0.4-0.97-0.62l-16.84-12.38c-2.68-1.97-4.28-5.13-4.28-8.46v-33.27l16.3-9.98   c3.16-1.93,6.8-2.91,10.49-2.89c1.93,0.03,3.52-1.53,3.54-3.46c0.02-1.93-1.52-3.52-3.46-3.54c-5.03-0.08-9.94,1.29-14.23,3.92   l-12.64,7.74v-13.08c0-7.39,0.81-14.8,2.42-22.01l1.99-8.94l29.47-29.03c6.21-6.12,6.95-16,1.71-22.97l-8.61-11.46   c1.88-0.01,3.78,0.48,5.49,1.5l17.01,10.13c1.66,0.99,3.81,0.44,4.8-1.22c0.99-1.66,0.45-3.81-1.22-4.8l-17.01-10.13   c-7.39-4.4-16.81-2.86-22.41,3.67c-1.88,2.19-3.21,4.84-3.83,7.66l-14.24,64.07c-1.71,7.71-2.58,15.63-2.58,23.53v54.56   c0,5.55,2.67,10.82,7.14,14.1l16.84,12.38c3.02,2.22,6.61,3.4,10.36,3.4H386.1c13.58,0,27.08-1.93,40.12-5.72l44.77-13.04   c8.59-2.5,15.83-7.8,20.88-14.72c0.23-0.24,0.42-0.5,0.57-0.79c4.51-6.51,7.09-14.36,7.06-22.63   C499.46,298.35,495.2,288.62,488.25,281.48z M257.99,207.11c-5.48,4.75-13.17,5.64-19.6,2.26l-47.22-24.82   c8.86-5.13,19.55-5.66,28.93-1.35l20.73,9.55l-2.73,1.64c-1.66,0.99-2.19,3.14-1.2,4.8c0.66,1.09,1.82,1.7,3,1.7   c0.61,0,1.23-0.16,1.8-0.5l6.82-4.09l14.33,6.6L257.99,207.11z M280.23,203.2l-24.44-11.26l3.98-2.39l22.76,12.27L280.23,203.2z    M293.2,210.58c-0.27-1.01-0.97-1.85-1.92-2.29l-3.35-1.55l1.76-1.06l15.71,8.47l-4.23,2.54l-8.18-3.77   C293.32,212.2,293.41,211.37,293.2,210.58z M304.51,230.45c-1.25,0-2.46-0.67-3.1-1.87c-0.88-1.67-0.18-3.75,1.44-4.72l6.02-3.61   l-0.01,0l3.7-2.22l20.02,10.8l-2.21,1.33l-11.88-5.47c-1.2-0.55-2.6-0.48-3.73,0.2l-8.45,5.07   C305.74,230.29,305.12,230.45,304.51,230.45z M416.46,290.06l-83.79-3.66c-5.4-0.24-10.3-2.89-13.45-7.28l-7.55-10.52l2.7-0.76   c14.44-4.09,27.9-11.04,39.6-20.44c2.32-1.87,1.89-5.52-0.81-6.76l-5.45-2.51c-1.2-0.55-2.6-0.48-3.73,0.2l-8.2,4.92   c-0.56,0.34-1.18,0.5-1.8,0.5c-1.25,0-2.46-0.67-3.1-1.87c-0.88-1.67-0.18-3.75,1.44-4.72l5.77-3.46l-0.01,0l1.68-1.01l53.91,29.07   c-6.34,2.11-13.18,2.39-19.76,0.73l-16.38-4.11c-1.84-0.46-3.83,0.5-4.39,2.31c-0.59,1.93,0.56,3.94,2.49,4.43l16.58,4.16   c3.42,0.86,6.89,1.28,10.35,1.28c6.45,0,12.84-1.5,18.71-4.39c7.37,2.63,15.02,4.48,22.78,5.47l40,5.1   c5.3,0.68,10.17,2.62,14.33,5.5C458.29,288.34,437.5,290.98,416.46,290.06z M36.15,195.31c0.38-1.7,1.18-3.3,2.31-4.62   c0.37-0.43,0.76-0.81,1.18-1.16l9.85,13.12c3.14,4.18,2.7,10.11-1.03,13.78L26.7,237.87L36.15,195.31z M49.81,358.83l23.68-25.71   c3.88-4.22,3.64-10.84-0.53-14.76l-15.23-14.31c-0.44-0.42-0.39-0.9-0.32-1.15c0.07-0.25,0.27-0.69,0.86-0.82l31.77-7.18   c11.69-2.64,24.04-2.56,35.7,0.25l49.95,12.02c24.81,5.97,47.23,18.89,64.84,37.37l13.62,14.3H49.81z M469.03,340.34l-44.77,13.04   c-12.4,3.61-25.24,5.44-38.16,5.44H263.81l-18.22-19.13c-7.31-7.67-15.42-14.42-24.15-20.18l96.53,14.79   c7.33,1.12,14.79,1.95,22.18,2.46l63.02,4.33c6.38,0.44,12.75,0.66,19.12,0.66c18.74,0,37.41-1.9,55.79-5.67   C475.35,337.93,472.31,339.39,469.03,340.34z" />
            <path
                d="M178.01,290.38c7.51,2.26,15.65,0.73,21.83-4.1l4.08-3.2c2.52-1.97,1.82-5.95-1.21-6.95l-50.17-16.52   c-7.61-2.51-15.97-1.07-22.31,3.83l-5.55,4.29c-2.57,1.99-1.82,6.06,1.29,6.99L178.01,290.38z" />
            <path
                d="M99.25,149.84c1.41,1.33,3.62,1.26,4.95-0.15c0.16-0.17,0.29-0.34,0.41-0.53c0.88-1.39,0.68-3.25-0.56-4.42l-18.95-17.86   c-1.41-1.33-3.62-1.26-4.95,0.15c-1.32,1.4-1.26,3.62,0.15,4.95L99.25,149.84z" />
            <path
                d="M176.13,124.59c1.36,0.14,2.62-0.53,3.31-1.61c0.28-0.44,0.47-0.96,0.52-1.52l2.62-25.91c0.19-1.92-1.21-3.64-3.13-3.83   c-1.92-0.19-3.64,1.21-3.83,3.13L173,120.75C172.81,122.68,174.21,124.39,176.13,124.59z" />
            <path
                d="M441.99,384.33c-1.11-1.58-3.29-1.97-4.88-0.85c-1.58,1.11-1.96,3.29-0.85,4.88l14.96,21.31c0.83,1.18,2.25,1.69,3.57,1.42   c0.46-0.09,0.9-0.28,1.31-0.56c1.58-1.11,1.96-3.29,0.85-4.88L441.99,384.33z" />
            <path
                d="M361.61,393.59c-1.84-0.58-3.81,0.45-4.39,2.29l-7.78,24.85c-0.58,1.84,0.45,3.81,2.29,4.39c0.59,0.18,1.18,0.21,1.75,0.09   c1.21-0.25,2.24-1.13,2.64-2.38l7.78-24.85C364.48,396.13,363.45,394.17,361.61,393.59z" />
        </symbol>
        <symbol id="icon-jordanlogo" viewBox="0 0 512 640">
            <path
                d="M498.65,322.32c-5.24-23.03-24.55-39.98-48.07-42.16l-35.09-3.27c-9.78-0.91-19.42-3.08-28.65-6.46l-54.51-19.94l0.86-2.43   c0.56-1.58,0-3.39-1.44-4.25c-1.97-1.18-4.4-0.23-5.13,1.82l-0.87,2.45l-33.4-12.22l1.34-2.5c0.79-1.47,0.51-3.34-0.77-4.41   c-1.77-1.47-4.32-0.9-5.35,1.02l-1.86,3.46l-5.47-2c-1.63-0.6-3-1.67-3.97-3.11l-16.18-24.13l1.99-2.36   c1.25-1.48,1.06-3.69-0.42-4.93c-1.48-1.25-3.69-1.06-4.93,0.42l-0.69,0.82l-13.98-20.84l5.05-3.03c1.66-0.99,2.19-3.14,1.2-4.8   s-3.14-2.19-4.8-1.2l-5.35,3.21l-28.76-42.88c-1.71-2.55-4.44-4.23-7.49-4.61c-3.05-0.37-6.11,0.59-8.38,2.65l-7.09,6.4   c-1.43,1.3-1.55,3.51-0.25,4.94c1.3,1.43,3.51,1.55,4.94,0.25l7.09-6.4c0.78-0.71,1.79-1.02,2.84-0.9   c1.05,0.13,1.95,0.68,2.53,1.56l28.56,42.58l-13.41,8.05c-0.16-0.5-0.32-1.01-0.46-1.51l-5.04-17.99   c-2.98-10.63-12.77-18.06-23.81-18.06H63.58c-6.15,0-11.55,4.15-13.15,10.09l-5.7,21.27c-2.5,9.33-1.67,19.19,2.31,27.96   c-3.38,3.23-6.12,7.12-8,11.45l-12.63,29.15c-1.55,3.57-2.68,7.29-3.41,11.1c-0.01,0.05-0.02,0.09-0.03,0.14   c-0.32,1.67-0.56,3.36-0.72,5.06l-4,44.12l-5.6,40.4c-0.46,3.31,0.03,6.67,1.41,9.71l9.83,21.7c2.85,6.3,9.17,10.37,16.08,10.37   H150.2c5.39,0,10.7-0.94,15.77-2.79l19.48-7.12c7.36-2.69,15.27-3.1,22.87-1.19l38.59,9.7c3.66,0.92,7.44,1.39,11.21,1.39h136.5   c15.23,0,30.02-3.1,43.97-9.2l40.46-17.71C494.03,354.6,502.27,338.27,498.65,322.32z M324.55,272.74l2.41-6.79l-0.1-0.04   l3.12-8.81l54.45,19.92c3.43,1.25,6.92,2.34,10.44,3.28c-0.89,3.96-3.72,7.33-7.6,8.8l-13.67,5.18l2.62-9.29   c0.57-2.04-0.52-4.17-2.5-4.9l-9.58-3.51c-2.22-0.81-4.66,0.44-5.29,2.72l-6.34,22.97l-15.42,5.84c-4.71,1.79-9.98,1.48-14.45-0.84   l-0.94-0.49l12.39-33.68c0.44-1.18,0.27-2.44-0.33-3.45c-0.17-0.29-0.61-0.24-0.72,0.08l-1.93,5.44c-0.51,1.44-1.86,2.33-3.3,2.33   c-0.61,0-1.23-0.16-1.82-0.51C324.56,276.13,323.99,274.32,324.55,272.74z M289,242.1l34.41,12.59l-3.22,9.07   c-1.43,0.2-2.71,1.13-3.25,2.58l-11.85,31.82l-27.29-14.17l13.28-26.5c0.53-1.05,0.55-2.21,0.17-3.22   c-0.12-0.32-0.57-0.33-0.73-0.04l-2.18,4.06c-0.63,1.18-1.84,1.85-3.09,1.85c-0.68,0-1.38-0.2-1.99-0.62   c-1.49-1.03-1.87-3.08-1.01-4.67l2.41-4.49l-0.07-0.03L289,242.1z M277.11,237.72c0.24,0.1,0.47,0.21,0.72,0.3l4.54,1.66   l-4.54,8.46c-1.46,0.03-2.84,0.85-3.54,2.22l-12.72,25.21l-1.74-0.9c-7.33-3.81-15.53-5.17-23.69-3.94l-20.78,3.12l31.11-39.6   c0.95-1.2,1.24-2.69,0.98-4.07l-2.58,3.07c-0.69,0.82-1.68,1.25-2.68,1.25c-0.8,0-1.6-0.27-2.25-0.82   c-1.48-1.25-1.67-3.45-0.42-4.93l3.04-3.61l-0.06-0.04l4.6-5.46l29.01,17.67C276.41,237.5,276.76,237.63,277.11,237.72z    M255.39,209.77l7.63,11.38l-11.37-6.93L255.39,209.77z M236.03,180.91l15.3,22.81l-5.73,6.81l-10.09-6.15   c-5.96-3.63-10.75-8.72-14-14.75L236.03,180.91z M215.49,193.24c3.83,6.99,9.43,12.89,16.37,17.12l9.17,5.59l-4.81,5.72   c-1.7-0.2-3.45,0.45-4.57,1.88l-42.53,54.16c-0.7,0.08-1.4,0.13-2.09,0.19l-14.01-9.25c-10.7-7.06-20.16-15.7-28.11-25.57   l62.91-34.8c1.72-0.95,2.89-2.52,3.39-4.28l-4.19,2.51c-0.56,0.34-1.18,0.5-1.8,0.5c-1.19,0-2.35-0.61-3-1.7   c-0.99-1.66-0.46-3.81,1.2-4.8l6.16-3.69l-0.01-0.02L215.49,193.24z M118.35,152.57h71.05c7.92,0,14.94,5.32,17.07,12.95   l5.04,17.99c0.31,1.12,0.68,2.22,1.07,3.3l-7.44,4.46c-2.03-1.04-4.52-1.08-6.66,0.1l-64.51,35.67c-1.89-3.3-3.65-6.68-5.23-10.16   c-4.07-8.93-7.03-18.26-8.87-27.79l69.8-9.75c5.16-0.72,7.8-6.58,4.92-10.92l-3.17-4.79c-1.51-2.27-4.18-3.48-6.88-3.1l-66.83,9.37   C117.52,164.15,117.73,158.36,118.35,152.57z M32.84,248.26l12.63-29.15c2.56-5.9,7.1-10.79,12.79-13.77   c4.22-2.21,7.35-6.11,8.6-10.7l7.87-28.99c0.51-1.87-0.59-3.79-2.46-4.29c-1.86-0.51-3.79,0.6-4.29,2.46l-7.87,28.99   c-0.74,2.72-2.59,5.03-5.09,6.34c-0.77,0.4-1.52,0.84-2.26,1.3c-2.74-6.89-3.2-14.49-1.26-21.71l5.7-21.27   c0.77-2.88,3.4-4.9,6.38-4.9h47.73c-2.34,22.99,1.46,46.15,11.07,67.22c10.16,22.29,26.34,41.2,46.78,54.69l5.72,3.78   c-17.35-0.52-34.45-5.42-49.49-14.37l-42.93-25.54c-10.36-6.16-23.11-5.98-33.29,0.47l-16.83,10.66   C32.51,249.08,32.67,248.67,32.84,248.26z M466.71,346.03L450.3,350c-18.64,4.51-37.93,5.7-56.99,3.49h0   c-13.84-1.6-27.03,6.28-32.17,19.23l-3.32,8.35H333.9l-38.17-17.79c-14.12-6.58-30.16-7.76-45.09-3.31l-37.21,11.08l-3.4-0.85   c-8.97-2.25-18.29-1.77-26.98,1.4l-1.96,0.71H82.4c-24.28,0-47.12-11.1-62.12-29.96l4.93-35.57c0.01-0.05,0.01-0.11,0.02-0.16   l4.01-44.21c0.09-0.97,0.22-1.94,0.36-2.9l23.31-14.78c7.94-5.03,17.89-5.17,25.97-0.37l42.93,25.54   c19.36,11.52,41.91,16.76,64.28,15.09c0.02,0,0.03,0,0.05,0c0.07,0,0.14-0.02,0.21-0.03c2.62-0.2,5.23-0.47,7.83-0.87l43-6.46   c6.7-1.01,13.42,0.11,19.43,3.23l62.8,32.6c3.56,1.85,7.47,2.78,11.4,2.78c2.96,0,5.93-0.53,8.76-1.6l50.18-19.02   c6.08-2.3,10.52-7.56,11.94-13.74c4.34,0.89,8.73,1.56,13.15,1.97l35.09,3.27c16.99,1.58,31.45,12,38.51,26.95   c-26.18,12.38-54.12,19.05-83.08,19.82l-32.15,0.86c-5.12,0.14-10.19,1.53-14.67,4.03l-13.64,7.62   c-6.02,3.36-13.22,4.07-19.78,1.94l-53.04-17.25c-6.83-2.22-13.94-3.2-21.12-2.9l-89.78,3.77c-4.27,0.18-8.55-0.16-12.73-1   l-41.84-8.44c-3.44-0.69-6.97-1.05-10.49-1.05H45.49c-1.88,0-3.72-0.31-5.49-0.93c-1.82-0.64-3.82,0.33-4.46,2.16   c-0.64,1.83,0.33,3.82,2.16,4.46c2.51,0.87,5.13,1.32,7.79,1.32h50.63c3.05,0,6.11,0.31,9.1,0.91l41.84,8.44   c4.73,0.96,9.58,1.34,14.41,1.13l89.78-3.77c6.34-0.27,12.62,0.59,18.66,2.56L322.97,355c3.2,1.04,6.51,1.55,9.82,1.55   c5.39,0,10.76-1.36,15.54-4.03l13.64-7.62c3.49-1.95,7.44-3.04,11.44-3.14l32.15-0.86c29.76-0.8,58.49-7.62,85.41-20.28   c0.32,1.07,0.62,2.15,0.87,3.25c0.08,0.35,0.12,0.69,0.19,1.04C487.35,335.39,478.08,343.28,466.71,346.03z" />
            <path
                d="M110.21,120.29c1.41,1.33,3.62,1.26,4.95-0.15c0.16-0.17,0.29-0.34,0.41-0.53c0.88-1.39,0.68-3.25-0.56-4.42L96.06,97.34   c-1.41-1.33-3.62-1.26-4.95,0.15c-1.32,1.4-1.26,3.62,0.15,4.95L110.21,120.29z" />
            <path
                d="M187.08,95.04c1.36,0.14,2.62-0.53,3.31-1.61c0.28-0.44,0.47-0.96,0.52-1.52L193.54,66c0.19-1.92-1.21-3.64-3.13-3.83   c-1.92-0.19-3.64,1.21-3.83,3.13l-2.62,25.91C183.76,93.13,185.16,94.84,187.08,95.04z" />
            <path
                d="M462.35,398.71c-1.11-1.58-3.29-1.97-4.88-0.85c-1.58,1.11-1.96,3.29-0.85,4.88l14.96,21.31c0.83,1.18,2.25,1.69,3.57,1.42   c0.46-0.09,0.9-0.28,1.31-0.56c1.58-1.11,1.96-3.29,0.85-4.88L462.35,398.71z" />
            <path
                d="M381.96,407.96c-1.84-0.58-3.81,0.45-4.39,2.29l-7.78,24.85c-0.58,1.84,0.45,3.81,2.29,4.39c0.59,0.18,1.18,0.2,1.75,0.09   c1.21-0.25,2.24-1.13,2.64-2.38l7.78-24.85C384.83,410.51,383.81,408.54,381.96,407.96z" />
        </symbol>
        <symbol id="icon-adidaslogo" viewBox="0 0 512 640">
            <path
                d="M499.4,307.52c0.01-0.37,0.04-0.74,0.04-1.12c0-18.75-15.26-34.01-34.01-34.01h-18.42c-15.67,0-31.07-2.73-45.78-8.12   l-54.29-19.87c-1.82-0.66-3.83,0.27-4.49,2.08c-0.66,1.82,0.27,3.83,2.08,4.49l54.29,19.87c15.48,5.67,31.7,8.54,48.19,8.54h18.42   c14.77,0,26.8,11.92,27,26.64l-33.5,14.47c-23.23,10.03-47.66,17.18-72.63,21.25l-10.37,1.69c-15.49,2.52-31.21,2.55-46.72,0.1   l-59.99-9.5l42.68-57.63c2.09-2.82,2.93-6.42,2.31-9.87c-0.62-3.45-2.66-6.53-5.6-8.44l-65.81-42.85   c-5.21-3.39-11.73-3.47-17.02-0.21c-5.29,3.26-8.14,9.13-7.44,15.31c1.33,11.79-2.66,23.42-10.96,31.91l-21.77,22.26   c-3.92,4-9.72,5.62-15.14,4.22l-22.62-5.84c-1.87-0.49-3.78,0.64-4.26,2.51c-0.48,1.87,0.64,3.78,2.51,4.26l22.62,5.84   c7.84,2.02,16.23-0.31,21.89-6.11l21.77-22.26c9.77-10,14.48-23.7,12.91-37.59c-0.4-3.51,1.16-6.71,4.16-8.56   c3-1.86,6.56-1.81,9.52,0.11l65.81,42.85c1.35,0.88,2.25,2.23,2.53,3.82c0.28,1.58-0.09,3.17-1.04,4.46l-44.85,60.56l-23.89-3.78   c-9.76-1.55-19.67-2.69-29.57-3.43c-5.34-5.06-11.92-8.67-19.11-10.45l-24.14-5.95c-14.25-3.51-26.6-12.37-34.49-24.73l0,0   c-8.82-13.81-22.45-23.87-38.26-28.21l-36.18-9.94l11.2-17.43c3.28-5.1,3.9-11.51,1.65-17.14l-9.01-22.63   c-0.35-0.87-0.33-1.82,0.04-2.68c0.37-0.86,1.06-1.52,1.93-1.87l9.09-3.57c1.41-0.55,3-0.14,3.97,1.02l21.27,25.6   c11.89,14.31,31.73,19.92,49.36,13.95l42.94-14.54c13.35-4.52,22.32-17.03,22.32-31.12v-28.17c0-1.08,0.49-2.08,1.33-2.75   c0.85-0.67,1.94-0.9,2.98-0.65l9.73,2.35c0.87,0.21,1.62,0.74,2.11,1.48l19.25,29.39l-9,4.32c-1.74,0.84-2.48,2.93-1.64,4.67   c0.6,1.25,1.85,1.99,3.16,1.99c0.51,0,1.02-0.11,1.51-0.35l9.84-4.72l1.27,1.94c4.15,6.34,8.8,12.34,13.87,17.96l-4.64,2.93   c-1.63,1.03-2.12,3.19-1.09,4.83c0.67,1.05,1.8,1.63,2.96,1.63c0.64,0,1.29-0.17,1.87-0.54l5.79-3.66   c6.15,6.19,12.83,11.84,19.95,16.88l-2.54,2.07c-1.5,1.22-1.72,3.43-0.5,4.92c0.69,0.85,1.7,1.29,2.72,1.29   c0.78,0,1.56-0.26,2.21-0.79l4.2-3.42c8.05,5.12,16.58,9.48,25.48,12.97l-2.84,2.71c-1.4,1.33-1.45,3.55-0.12,4.95   c0.69,0.72,1.61,1.08,2.53,1.08c0.87,0,1.74-0.32,2.42-0.97l11.68-11.14c1.4-1.33,1.45-3.55,0.12-4.95   c-1.33-1.4-3.55-1.45-4.95-0.12l-3.23,3.08c-0.03-0.01-0.06-0.03-0.1-0.05c-8.81-3.23-17.28-7.35-25.26-12.25l2.09-1.7   c1.5-1.22,1.72-3.43,0.5-4.92c-1.22-1.5-3.42-1.72-4.92-0.5l-3.82,3.11c-6.97-4.78-13.51-10.18-19.52-16.12l3.66-2.32   c1.63-1.03,2.12-3.19,1.09-4.83s-3.19-2.12-4.83-1.09l-4.9,3.1c-5.14-5.6-9.84-11.62-14.02-18l-0.76-1.16l5.7-2.74   c1.74-0.84,2.48-2.93,1.64-4.67c-0.84-1.74-2.93-2.48-4.67-1.64l-6.54,3.14l-19.76-30.17c-1.47-2.24-3.71-3.83-6.32-4.46   l-9.73-2.35c-3.15-0.76-6.41-0.05-8.96,1.96c-2.55,2-4,5.01-4,8.25v28.17c0,11.09-7.06,20.93-17.56,24.49l-42.94,14.54   c-14.9,5.05-31.67,0.31-41.73-11.79l-21.28-25.6c-2.9-3.49-7.69-4.72-11.91-3.06l-9.09,3.57c-2.62,1.03-4.68,3.02-5.79,5.6   c-1.12,2.58-1.16,5.44-0.12,8.06l9.01,22.63c1.41,3.54,1.02,7.56-1.04,10.77L49.3,243.45c-5.95,9.27-9.66,19.96-10.73,30.92   l-2.25,23.22c-0.49,5.05,2.7,9.72,7.57,11.11l27.95,7.97c26.85,7.65,54.61,12.16,82.5,13.4l42.63,1.89   c13.17,0.58,26.45,1.93,39.47,3.99l25.99,4.12c0,0,0,0,0.01,0l65.68,10.4c8.01,1.27,16.08,1.9,24.14,1.9   c8.29,0,16.57-0.67,24.79-2.01l10.37-1.69c25.54-4.16,50.53-11.47,74.28-21.73l29.64-12.8c-2.33,8.16-8.29,14.9-16.5,18.14   l-55.11,21.79c-23.01,9.1-47.22,13.71-71.96,13.71h-235.5c-28.11,0-55.49-8-79.17-23.13l-10.12-6.47c-2.19-1.4-3.49-3.78-3.49-6.37   v-7.42c0-2.62,1.33-5.02,3.55-6.41c1.64-1.02,2.14-3.18,1.11-4.82c-1.02-1.64-3.18-2.14-4.82-1.11c-4.28,2.68-6.84,7.29-6.84,12.35   v7.42c0,4.99,2.51,9.58,6.72,12.27l10.12,6.47c24.81,15.86,53.5,24.24,82.94,24.24h235.5c25.63,0,50.7-4.78,74.53-14.2l55.11-21.79   c12.43-4.92,20.76-16.24,21.88-29.36C499.51,308.82,499.55,308.17,499.4,307.52z" />
            <path
                d="M93.72,153.2c1.41,1.33,3.62,1.26,4.95-0.15c0.16-0.17,0.29-0.34,0.41-0.53c0.88-1.39,0.68-3.25-0.56-4.42l-18.95-17.86   c-1.41-1.33-3.62-1.26-4.95,0.15c-1.32,1.4-1.26,3.62,0.15,4.95L93.72,153.2z" />
            <path
                d="M170.59,127.95c1.36,0.14,2.62-0.53,3.31-1.61c0.28-0.44,0.47-0.96,0.52-1.52l2.62-25.91c0.19-1.92-1.21-3.64-3.13-3.83   c-1.92-0.19-3.64,1.21-3.83,3.13l-2.62,25.91C167.27,126.04,168.67,127.75,170.59,127.95z" />
            <path
                d="M437.71,384.33c-1.11-1.58-3.29-1.97-4.88-0.85c-1.58,1.11-1.96,3.29-0.85,4.88l14.96,21.31c0.83,1.18,2.25,1.69,3.57,1.42   c0.46-0.09,0.9-0.28,1.31-0.56c1.58-1.11,1.96-3.29,0.85-4.88L437.71,384.33z" />
            <path
                d="M357.32,393.59c-1.84-0.58-3.81,0.45-4.39,2.29l-7.78,24.85c-0.58,1.84,0.45,3.81,2.29,4.39c0.59,0.18,1.18,0.21,1.75,0.09   c1.21-0.25,2.24-1.12,2.64-2.38l7.78-24.85C360.19,396.13,359.17,394.17,357.32,393.59z" />
        </symbol>
        <symbol id="icon-darkmode" viewBox="0 0 100 100">
            <path
                d="m61.094 36.699c0.19922 1.2422 0.30078 2.5156 0.30078 3.8125 0 13.367-10.852 24.219-24.219 24.219-13.367 0-24.219-10.852-24.219-24.219 0-13.367 10.852-24.219 24.219-24.219 11.199 0 20.633 7.6172 23.398 17.949 0.87891-0.097657 1.7695-0.14844 2.6758-0.14844 13.367 0 24.219 10.852 24.219 24.219s-10.852 24.219-24.219 24.219c-9.7148 0-18.105-5.7344-21.961-14l2.2656-1.0586c3.457 7.4141 10.98 12.559 19.695 12.559 11.984 0 21.719-9.7305 21.719-21.719s-9.7344-21.719-21.719-21.719c-0.72656 0-1.4453 0.035156-2.1562 0.10547zm-4.4922-5.9062c-3.5703-7.1133-10.93-12-19.426-12-11.984 0-21.719 9.7305-21.719 21.719 0 6.8398 3.1719 12.949 8.1211 16.93-1.3906-1.2031-2.6328-2.5742-3.6953-4.082 3.9727 3.5078 9.1914 5.6367 14.906 5.6367 12.434 0 22.531-10.098 22.531-22.535 0-1.957-0.25-3.8555-0.71875-5.668zm-18.703-5.3008 4.2539 3.0078 5.1328 0.88281c0.52344 0.089844 0.92969 0.49609 1.0195 1.0195l0.88281 5.1328 3.0078 4.2539c0.30469 0.43359 0.30469 1.0117 0 1.4453l-3.0078 4.2539-0.88281 5.1328c-0.089844 0.52344-0.49609 0.92969-1.0195 1.0195l-5.1328 0.88281-4.2539 3.0078c-0.43359 0.30469-1.0117 0.30469-1.4453 0l-4.2539-3.0078-5.1328-0.88281c-0.52344-0.089844-0.92969-0.49609-1.0195-1.0195l-0.88281-5.1328-3.0078-4.2539c-0.30469-0.43359-0.30469-1.0117 0-1.4453l3.0078-4.2539 0.88281-5.1328c0.089844-0.52344 0.49609-0.92969 1.0195-1.0195l5.1328-0.88281 4.2539-3.0078c0.43359-0.30469 1.0117-0.30469 1.4453 0zm-0.72266 2.5508-3.7656 2.6602c-0.14844 0.10938-0.32422 0.17969-0.50781 0.21094 0 0-4.543 0.78125-4.543 0.78125l-0.78125 4.543c-0.03125 0.18359-0.10156 0.35547-0.21094 0.50781 0 0-2.6602 3.7656-2.6602 3.7656l2.6602 3.7656c0.10937 0.14844 0.17969 0.32422 0.21094 0.50781l0.78125 4.543 4.543 0.78125c0.18359 0.03125 0.35938 0.10156 0.50781 0.21094l3.7656 2.6602 3.7656-2.6602c0.15234-0.10937 0.32422-0.17969 0.50781-0.21094 0 0 4.543-0.78125 4.543-0.78125l0.78125-4.543c0.03125-0.18359 0.10156-0.35938 0.21094-0.50781 0 0 2.6602-3.7656 2.6602-3.7656l-2.6602-3.7656c-0.10938-0.15234-0.17969-0.32422-0.21094-0.50781l-0.78125-4.543-4.543-0.78125c-0.18359-0.03125-0.35547-0.10156-0.50781-0.21094zm0 5.4727c3.8633 0 6.9961 3.1367 6.9961 6.9961s-3.1328 6.9961-6.9961 6.9961c-3.8594 0-6.9961-3.1367-6.9961-6.9961s3.1367-6.9961 6.9961-6.9961zm0 2.5c-2.4805 0-4.4961 2.0156-4.4961 4.4961s2.0156 4.4961 4.4961 4.4961 4.4961-2.0156 4.4961-4.4961-2.0156-4.4961-4.4961-4.4961zm16.988-17.223v-2.5h16.883c6.4336 0 11.645 5.2148 11.645 11.648v6.8242h-2.4961v-6.8242c0-5.0547-4.0977-9.1484-9.1484-9.1484zm-11.242 59.715v2.4961h-16.883c-3.0898 0-6.0508-1.2266-8.2383-3.4102-2.1836-2.1836-3.4102-5.1445-3.4102-8.2344v-11.047h2.5v11.047c0 2.4258 0.96484 4.7539 2.6797 6.4688 1.7148 1.7148 4.043 2.6797 6.4688 2.6797zm22.953-33.371c6.125 1.4102 10.699 6.9023 10.699 13.453 0 7.6172-6.1836 13.805-13.805 13.805-5.0273 0-9.4336-2.6953-11.848-6.7188-0.25781-0.42969-0.23438-0.97266 0.0625-1.3789 0.29297-0.40234 0.80078-0.59375 1.293-0.48047 0.81641 0.1875 1.668 0.28516 2.543 0.28516 6.2383 0 11.305-5.0625 11.305-11.305 0-2.1172-0.58594-4.1016-1.6016-5.8008-0.25781-0.42969-0.23438-0.97266 0.0625-1.3789 0.29297-0.40234 0.80078-0.59375 1.2891-0.48047zm6.375 7.2969c-1.0664-1.6406-2.5469-2.9883-4.293-3.8906 0.43359 1.3398 0.66797 2.7695 0.66797 4.2539 0 2.8086-0.83984 5.4258-2.2812 7.6055 3.0938-2.1133 4.9883-4.9414 5.9062-7.9688z"
                fill-rule="evenodd" />
        </symbol>
    </defs>
</svg>