<svg xmlns="http://www.w3.org/2000/svg" xmlns:xlink="http://www.w3.org/1999/xlink" version="1.1" x="0px" y="0px" viewBox="0 0 512 640" style="enable-background:new 0 0 512 512;" xml:space="preserve"><g><path d="M499.4,307.52c0.01-0.37,0.04-0.74,0.04-1.12c0-18.75-15.26-34.01-34.01-34.01h-18.42c-15.67,0-31.07-2.73-45.78-8.12   l-54.29-19.87c-1.82-0.66-3.83,0.27-4.49,2.08c-0.66,1.82,0.27,3.83,2.08,4.49l54.29,19.87c15.48,5.67,31.7,8.54,48.19,8.54h18.42   c14.77,0,26.8,11.92,27,26.64l-33.5,14.47c-23.23,10.03-47.66,17.18-72.63,21.25l-10.37,1.69c-15.49,2.52-31.21,2.55-46.72,0.1   l-59.99-9.5l42.68-57.63c2.09-2.82,2.93-6.42,2.31-9.87c-0.62-3.45-2.66-6.53-5.6-8.44l-65.81-42.85   c-5.21-3.39-11.73-3.47-17.02-0.21c-5.29,3.26-8.14,9.13-7.44,15.31c1.33,11.79-2.66,23.42-10.96,31.91l-21.77,22.26   c-3.92,4-9.72,5.62-15.14,4.22l-22.62-5.84c-1.87-0.49-3.78,0.64-4.26,2.51c-0.48,1.87,0.64,3.78,2.51,4.26l22.62,5.84   c7.84,2.02,16.23-0.31,21.89-6.11l21.77-22.26c9.77-10,14.48-23.7,12.91-37.59c-0.4-3.51,1.16-6.71,4.16-8.56   c3-1.86,6.56-1.81,9.52,0.11l65.81,42.85c1.35,0.88,2.25,2.23,2.53,3.82c0.28,1.58-0.09,3.17-1.04,4.46l-44.85,60.56l-23.89-3.78   c-9.76-1.55-19.67-2.69-29.57-3.43c-5.34-5.06-11.92-8.67-19.11-10.45l-24.14-5.95c-14.25-3.51-26.6-12.37-34.49-24.73l0,0   c-8.82-13.81-22.45-23.87-38.26-28.21l-36.18-9.94l11.2-17.43c3.28-5.1,3.9-11.51,1.65-17.14l-9.01-22.63   c-0.35-0.87-0.33-1.82,0.04-2.68c0.37-0.86,1.06-1.52,1.93-1.87l9.09-3.57c1.41-0.55,3-0.14,3.97,1.02l21.27,25.6   c11.89,14.31,31.73,19.92,49.36,13.95l42.94-14.54c13.35-4.52,22.32-17.03,22.32-31.12v-28.17c0-1.08,0.49-2.08,1.33-2.75   c0.85-0.67,1.94-0.9,2.98-0.65l9.73,2.35c0.87,0.21,1.62,0.74,2.11,1.48l19.25,29.39l-9,4.32c-1.74,0.84-2.48,2.93-1.64,4.67   c0.6,1.25,1.85,1.99,3.16,1.99c0.51,0,1.02-0.11,1.51-0.35l9.84-4.72l1.27,1.94c4.15,6.34,8.8,12.34,13.87,17.96l-4.64,2.93   c-1.63,1.03-2.12,3.19-1.09,4.83c0.67,1.05,1.8,1.63,2.96,1.63c0.64,0,1.29-0.17,1.87-0.54l5.79-3.66   c6.15,6.19,12.83,11.84,19.95,16.88l-2.54,2.07c-1.5,1.22-1.72,3.43-0.5,4.92c0.69,0.85,1.7,1.29,2.72,1.29   c0.78,0,1.56-0.26,2.21-0.79l4.2-3.42c8.05,5.12,16.58,9.48,25.48,12.97l-2.84,2.71c-1.4,1.33-1.45,3.55-0.12,4.95   c0.69,0.72,1.61,1.08,2.53,1.08c0.87,0,1.74-0.32,2.42-0.97l11.68-11.14c1.4-1.33,1.45-3.55,0.12-4.95   c-1.33-1.4-3.55-1.45-4.95-0.12l-3.23,3.08c-0.03-0.01-0.06-0.03-0.1-0.05c-8.81-3.23-17.28-7.35-25.26-12.25l2.09-1.7   c1.5-1.22,1.72-3.43,0.5-4.92c-1.22-1.5-3.42-1.72-4.92-0.5l-3.82,3.11c-6.97-4.78-13.51-10.18-19.52-16.12l3.66-2.32   c1.63-1.03,2.12-3.19,1.09-4.83s-3.19-2.12-4.83-1.09l-4.9,3.1c-5.14-5.6-9.84-11.62-14.02-18l-0.76-1.16l5.7-2.74   c1.74-0.84,2.48-2.93,1.64-4.67c-0.84-1.74-2.93-2.48-4.67-1.64l-6.54,3.14l-19.76-30.17c-1.47-2.24-3.71-3.83-6.32-4.46   l-9.73-2.35c-3.15-0.76-6.41-0.05-8.96,1.96c-2.55,2-4,5.01-4,8.25v28.17c0,11.09-7.06,20.93-17.56,24.49l-42.94,14.54   c-14.9,5.05-31.67,0.31-41.73-11.79l-21.28-25.6c-2.9-3.49-7.69-4.72-11.91-3.06l-9.09,3.57c-2.62,1.03-4.68,3.02-5.79,5.6   c-1.12,2.58-1.16,5.44-0.12,8.06l9.01,22.63c1.41,3.54,1.02,7.56-1.04,10.77L49.3,243.45c-5.95,9.27-9.66,19.96-10.73,30.92   l-2.25,23.22c-0.49,5.05,2.7,9.72,7.57,11.11l27.95,7.97c26.85,7.65,54.61,12.16,82.5,13.4l42.63,1.89   c13.17,0.58,26.45,1.93,39.47,3.99l25.99,4.12c0,0,0,0,0.01,0l65.68,10.4c8.01,1.27,16.08,1.9,24.14,1.9   c8.29,0,16.57-0.67,24.79-2.01l10.37-1.69c25.54-4.16,50.53-11.47,74.28-21.73l29.64-12.8c-2.33,8.16-8.29,14.9-16.5,18.14   l-55.11,21.79c-23.01,9.1-47.22,13.71-71.96,13.71h-235.5c-28.11,0-55.49-8-79.17-23.13l-10.12-6.47c-2.19-1.4-3.49-3.78-3.49-6.37   v-7.42c0-2.62,1.33-5.02,3.55-6.41c1.64-1.02,2.14-3.18,1.11-4.82c-1.02-1.64-3.18-2.14-4.82-1.11c-4.28,2.68-6.84,7.29-6.84,12.35   v7.42c0,4.99,2.51,9.58,6.72,12.27l10.12,6.47c24.81,15.86,53.5,24.24,82.94,24.24h235.5c25.63,0,50.7-4.78,74.53-14.2l55.11-21.79   c12.43-4.92,20.76-16.24,21.88-29.36C499.51,308.82,499.55,308.17,499.4,307.52z"/><path d="M93.72,153.2c1.41,1.33,3.62,1.26,4.95-0.15c0.16-0.17,0.29-0.34,0.41-0.53c0.88-1.39,0.68-3.25-0.56-4.42l-18.95-17.86   c-1.41-1.33-3.62-1.26-4.95,0.15c-1.32,1.4-1.26,3.62,0.15,4.95L93.72,153.2z"/><path d="M170.59,127.95c1.36,0.14,2.62-0.53,3.31-1.61c0.28-0.44,0.47-0.96,0.52-1.52l2.62-25.91c0.19-1.92-1.21-3.64-3.13-3.83   c-1.92-0.19-3.64,1.21-3.83,3.13l-2.62,25.91C167.27,126.04,168.67,127.75,170.59,127.95z"/><path d="M437.71,384.33c-1.11-1.58-3.29-1.97-4.88-0.85c-1.58,1.11-1.96,3.29-0.85,4.88l14.96,21.31c0.83,1.18,2.25,1.69,3.57,1.42   c0.46-0.09,0.9-0.28,1.31-0.56c1.58-1.11,1.96-3.29,0.85-4.88L437.71,384.33z"/><path d="M357.32,393.59c-1.84-0.58-3.81,0.45-4.39,2.29l-7.78,24.85c-0.58,1.84,0.45,3.81,2.29,4.39c0.59,0.18,1.18,0.21,1.75,0.09   c1.21-0.25,2.24-1.12,2.64-2.38l7.78-24.85C360.19,396.13,359.17,394.17,357.32,393.59z"/></g></svg>