<svg xmlns="http://www.w3.org/2000/svg" xmlns:xlink="http://www.w3.org/1999/xlink" version="1.1" x="0px" y="0px" viewBox="0 0 512 640" style="enable-background:new 0 0 512 512;" xml:space="preserve"><g><path d="M498.65,322.32c-5.24-23.03-24.55-39.98-48.07-42.16l-35.09-3.27c-9.78-0.91-19.42-3.08-28.65-6.46l-54.51-19.94l0.86-2.43   c0.56-1.58,0-3.39-1.44-4.25c-1.97-1.18-4.4-0.23-5.13,1.82l-0.87,2.45l-33.4-12.22l1.34-2.5c0.79-1.47,0.51-3.34-0.77-4.41   c-1.77-1.47-4.32-0.9-5.35,1.02l-1.86,3.46l-5.47-2c-1.63-0.6-3-1.67-3.97-3.11l-16.18-24.13l1.99-2.36   c1.25-1.48,1.06-3.69-0.42-4.93c-1.48-1.25-3.69-1.06-4.93,0.42l-0.69,0.82l-13.98-20.84l5.05-3.03c1.66-0.99,2.19-3.14,1.2-4.8   s-3.14-2.19-4.8-1.2l-5.35,3.21l-28.76-42.88c-1.71-2.55-4.44-4.23-7.49-4.61c-3.05-0.37-6.11,0.59-8.38,2.65l-7.09,6.4   c-1.43,1.3-1.55,3.51-0.25,4.94c1.3,1.43,3.51,1.55,4.94,0.25l7.09-6.4c0.78-0.71,1.79-1.02,2.84-0.9   c1.05,0.13,1.95,0.68,2.53,1.56l28.56,42.58l-13.41,8.05c-0.16-0.5-0.32-1.01-0.46-1.51l-5.04-17.99   c-2.98-10.63-12.77-18.06-23.81-18.06H63.58c-6.15,0-11.55,4.15-13.15,10.09l-5.7,21.27c-2.5,9.33-1.67,19.19,2.31,27.96   c-3.38,3.23-6.12,7.12-8,11.45l-12.63,29.15c-1.55,3.57-2.68,7.29-3.41,11.1c-0.01,0.05-0.02,0.09-0.03,0.14   c-0.32,1.67-0.56,3.36-0.72,5.06l-4,44.12l-5.6,40.4c-0.46,3.31,0.03,6.67,1.41,9.71l9.83,21.7c2.85,6.3,9.17,10.37,16.08,10.37   H150.2c5.39,0,10.7-0.94,15.77-2.79l19.48-7.12c7.36-2.69,15.27-3.1,22.87-1.19l38.59,9.7c3.66,0.92,7.44,1.39,11.21,1.39h136.5   c15.23,0,30.02-3.1,43.97-9.2l40.46-17.71C494.03,354.6,502.27,338.27,498.65,322.32z M324.55,272.74l2.41-6.79l-0.1-0.04   l3.12-8.81l54.45,19.92c3.43,1.25,6.92,2.34,10.44,3.28c-0.89,3.96-3.72,7.33-7.6,8.8l-13.67,5.18l2.62-9.29   c0.57-2.04-0.52-4.17-2.5-4.9l-9.58-3.51c-2.22-0.81-4.66,0.44-5.29,2.72l-6.34,22.97l-15.42,5.84c-4.71,1.79-9.98,1.48-14.45-0.84   l-0.94-0.49l12.39-33.68c0.44-1.18,0.27-2.44-0.33-3.45c-0.17-0.29-0.61-0.24-0.72,0.08l-1.93,5.44c-0.51,1.44-1.86,2.33-3.3,2.33   c-0.61,0-1.23-0.16-1.82-0.51C324.56,276.13,323.99,274.32,324.55,272.74z M289,242.1l34.41,12.59l-3.22,9.07   c-1.43,0.2-2.71,1.13-3.25,2.58l-11.85,31.82l-27.29-14.17l13.28-26.5c0.53-1.05,0.55-2.21,0.17-3.22   c-0.12-0.32-0.57-0.33-0.73-0.04l-2.18,4.06c-0.63,1.18-1.84,1.85-3.09,1.85c-0.68,0-1.38-0.2-1.99-0.62   c-1.49-1.03-1.87-3.08-1.01-4.67l2.41-4.49l-0.07-0.03L289,242.1z M277.11,237.72c0.24,0.1,0.47,0.21,0.72,0.3l4.54,1.66   l-4.54,8.46c-1.46,0.03-2.84,0.85-3.54,2.22l-12.72,25.21l-1.74-0.9c-7.33-3.81-15.53-5.17-23.69-3.94l-20.78,3.12l31.11-39.6   c0.95-1.2,1.24-2.69,0.98-4.07l-2.58,3.07c-0.69,0.82-1.68,1.25-2.68,1.25c-0.8,0-1.6-0.27-2.25-0.82   c-1.48-1.25-1.67-3.45-0.42-4.93l3.04-3.61l-0.06-0.04l4.6-5.46l29.01,17.67C276.41,237.5,276.76,237.63,277.11,237.72z    M255.39,209.77l7.63,11.38l-11.37-6.93L255.39,209.77z M236.03,180.91l15.3,22.81l-5.73,6.81l-10.09-6.15   c-5.96-3.63-10.75-8.72-14-14.75L236.03,180.91z M215.49,193.24c3.83,6.99,9.43,12.89,16.37,17.12l9.17,5.59l-4.81,5.72   c-1.7-0.2-3.45,0.45-4.57,1.88l-42.53,54.16c-0.7,0.08-1.4,0.13-2.09,0.19l-14.01-9.25c-10.7-7.06-20.16-15.7-28.11-25.57   l62.91-34.8c1.72-0.95,2.89-2.52,3.39-4.28l-4.19,2.51c-0.56,0.34-1.18,0.5-1.8,0.5c-1.19,0-2.35-0.61-3-1.7   c-0.99-1.66-0.46-3.81,1.2-4.8l6.16-3.69l-0.01-0.02L215.49,193.24z M118.35,152.57h71.05c7.92,0,14.94,5.32,17.07,12.95   l5.04,17.99c0.31,1.12,0.68,2.22,1.07,3.3l-7.44,4.46c-2.03-1.04-4.52-1.08-6.66,0.1l-64.51,35.67c-1.89-3.3-3.65-6.68-5.23-10.16   c-4.07-8.93-7.03-18.26-8.87-27.79l69.8-9.75c5.16-0.72,7.8-6.58,4.92-10.92l-3.17-4.79c-1.51-2.27-4.18-3.48-6.88-3.1l-66.83,9.37   C117.52,164.15,117.73,158.36,118.35,152.57z M32.84,248.26l12.63-29.15c2.56-5.9,7.1-10.79,12.79-13.77   c4.22-2.21,7.35-6.11,8.6-10.7l7.87-28.99c0.51-1.87-0.59-3.79-2.46-4.29c-1.86-0.51-3.79,0.6-4.29,2.46l-7.87,28.99   c-0.74,2.72-2.59,5.03-5.09,6.34c-0.77,0.4-1.52,0.84-2.26,1.3c-2.74-6.89-3.2-14.49-1.26-21.71l5.7-21.27   c0.77-2.88,3.4-4.9,6.38-4.9h47.73c-2.34,22.99,1.46,46.15,11.07,67.22c10.16,22.29,26.34,41.2,46.78,54.69l5.72,3.78   c-17.35-0.52-34.45-5.42-49.49-14.37l-42.93-25.54c-10.36-6.16-23.11-5.98-33.29,0.47l-16.83,10.66   C32.51,249.08,32.67,248.67,32.84,248.26z M466.71,346.03L450.3,350c-18.64,4.51-37.93,5.7-56.99,3.49h0   c-13.84-1.6-27.03,6.28-32.17,19.23l-3.32,8.35H333.9l-38.17-17.79c-14.12-6.58-30.16-7.76-45.09-3.31l-37.21,11.08l-3.4-0.85   c-8.97-2.25-18.29-1.77-26.98,1.4l-1.96,0.71H82.4c-24.28,0-47.12-11.1-62.12-29.96l4.93-35.57c0.01-0.05,0.01-0.11,0.02-0.16   l4.01-44.21c0.09-0.97,0.22-1.94,0.36-2.9l23.31-14.78c7.94-5.03,17.89-5.17,25.97-0.37l42.93,25.54   c19.36,11.52,41.91,16.76,64.28,15.09c0.02,0,0.03,0,0.05,0c0.07,0,0.14-0.02,0.21-0.03c2.62-0.2,5.23-0.47,7.83-0.87l43-6.46   c6.7-1.01,13.42,0.11,19.43,3.23l62.8,32.6c3.56,1.85,7.47,2.78,11.4,2.78c2.96,0,5.93-0.53,8.76-1.6l50.18-19.02   c6.08-2.3,10.52-7.56,11.94-13.74c4.34,0.89,8.73,1.56,13.15,1.97l35.09,3.27c16.99,1.58,31.45,12,38.51,26.95   c-26.18,12.38-54.12,19.05-83.08,19.82l-32.15,0.86c-5.12,0.14-10.19,1.53-14.67,4.03l-13.64,7.62   c-6.02,3.36-13.22,4.07-19.78,1.94l-53.04-17.25c-6.83-2.22-13.94-3.2-21.12-2.9l-89.78,3.77c-4.27,0.18-8.55-0.16-12.73-1   l-41.84-8.44c-3.44-0.69-6.97-1.05-10.49-1.05H45.49c-1.88,0-3.72-0.31-5.49-0.93c-1.82-0.64-3.82,0.33-4.46,2.16   c-0.64,1.83,0.33,3.82,2.16,4.46c2.51,0.87,5.13,1.32,7.79,1.32h50.63c3.05,0,6.11,0.31,9.1,0.91l41.84,8.44   c4.73,0.96,9.58,1.34,14.41,1.13l89.78-3.77c6.34-0.27,12.62,0.59,18.66,2.56L322.97,355c3.2,1.04,6.51,1.55,9.82,1.55   c5.39,0,10.76-1.36,15.54-4.03l13.64-7.62c3.49-1.95,7.44-3.04,11.44-3.14l32.15-0.86c29.76-0.8,58.49-7.62,85.41-20.28   c0.32,1.07,0.62,2.15,0.87,3.25c0.08,0.35,0.12,0.69,0.19,1.04C487.35,335.39,478.08,343.28,466.71,346.03z"/><path d="M110.21,120.29c1.41,1.33,3.62,1.26,4.95-0.15c0.16-0.17,0.29-0.34,0.41-0.53c0.88-1.39,0.68-3.25-0.56-4.42L96.06,97.34   c-1.41-1.33-3.62-1.26-4.95,0.15c-1.32,1.4-1.26,3.62,0.15,4.95L110.21,120.29z"/><path d="M187.08,95.04c1.36,0.14,2.62-0.53,3.31-1.61c0.28-0.44,0.47-0.96,0.52-1.52L193.54,66c0.19-1.92-1.21-3.64-3.13-3.83   c-1.92-0.19-3.64,1.21-3.83,3.13l-2.62,25.91C183.76,93.13,185.16,94.84,187.08,95.04z"/><path d="M462.35,398.71c-1.11-1.58-3.29-1.97-4.88-0.85c-1.58,1.11-1.96,3.29-0.85,4.88l14.96,21.31c0.83,1.18,2.25,1.69,3.57,1.42   c0.46-0.09,0.9-0.28,1.31-0.56c1.58-1.11,1.96-3.29,0.85-4.88L462.35,398.71z"/><path d="M381.96,407.96c-1.84-0.58-3.81,0.45-4.39,2.29l-7.78,24.85c-0.58,1.84,0.45,3.81,2.29,4.39c0.59,0.18,1.18,0.2,1.75,0.09   c1.21-0.25,2.24-1.13,2.64-2.38l7.78-24.85C384.83,410.51,383.81,408.54,381.96,407.96z"/></g></svg>