<svg xmlns="http://www.w3.org/2000/svg" version="1.1" viewBox="-5.0 -10.0 110.0 135.0">
 <path d="m87.273 52.727c-0.21484-0.28516-0.55078-0.45312-0.91016-0.45312h-51.742c0.66406-0.48828 1.3945-0.90234 2.1719-1.2188 0.42578-0.17578 0.70703-0.58984 0.70703-1.0508 0-0.46094-0.28125-0.87891-0.70703-1.0508-0.83594-0.33984-1.6133-0.79297-2.3164-1.3281 3.1484-0.25 5.2539-0.90625 7.1328-1.5039 2.8828-0.92188 5.1602-1.6484 10.461-0.67578 17.598 3.2188 28.586 2.7578 33.598-1.4141 1.9727-1.6445 2.9727-3.8359 2.9727-6.5195 0-11.535-6.4922-12.719-14.711-14.215-2.3281-0.42578-4.9688-0.90625-7.7188-1.6562-3.2812-0.89453-6.5859-2.8789-9.6562-5.2891-0.023438-0.03125-0.035157-0.070312-0.066407-0.097656-0.10938-0.10938-0.23438-0.1875-0.36719-0.24219-7.9219-6.3711-14.188-15.391-14.277-15.52-0.26953-0.39063-0.75781-0.57031-1.2109-0.45703-5.2852 1.3203-3.4805 11.922-3.1367 13.691-0.042969 0.55078-0.50781 3.3203-5.6758 3.3203-3.5352 0-5.7031-2.5195-6.8984-4.6328-1.1562-2.0469-3.3047-3.3203-5.6016-3.3203-0.33203 0-0.64844 0.14453-0.86328 0.39844-6.3008 7.3477-5.2695 18.973-4.8984 21.863-0.88281 0.91016-2.1953 3.1484-2.1953 8.4219 0 6.2969 6.4531 7.5586 13.242 7.8555-0.70312 0.53516-1.4766 0.98047-2.3086 1.3203-0.42578 0.17578-0.70703 0.58984-0.70703 1.0508 0 0.46094 0.28125 0.87891 0.70703 1.0508 0.77734 0.31641 1.5078 0.73047 2.1719 1.2188h-10.832c-0.35547 0-0.69531 0.16797-0.91016 0.45312l-10.227 13.637c-0.37891 0.50391-0.27344 1.2148 0.22656 1.5898 0.20313 0.15234 0.44141 0.22656 0.67969 0.22656 0.34766 0 0.6875-0.15625 0.91016-0.45313l8.1836-10.91v42.047c0 0.62891 0.50781 1.1367 1.1367 1.1367h72.727c0.62891 0 1.1367-0.50781 1.1367-1.1367v-42.047l8.1836 10.91c0.22266 0.29688 0.5625 0.45313 0.91016 0.45313 0.23828 0 0.47656-0.074219 0.67969-0.22656 0.50391-0.375 0.60547-1.0898 0.22656-1.5898zm-36.32 13.184h-26.523l-8.5234-11.363h10.762c0.95312 1.3672 1.5664 2.9609 1.7422 4.6602 0.058594 0.57812 0.54688 1.0195 1.1289 1.0195 0.58203 0 1.0703-0.44141 1.1289-1.0195 0.17578-1.7031 0.78906-3.293 1.7422-4.6602h51.516l-9.4688 11.363h-23.512zm-3.9688 2.2734-32.211 18.492v-29.855l8.1836 10.91c0.21484 0.28516 0.55078 0.45312 0.91016 0.45312h23.121zm-18.816-20.891c0.53906-0.69141 1.0039-1.4375 1.3789-2.2266 0.375 0.78906 0.83594 1.5352 1.3789 2.2266 0.83203 1.0586 1.8438 1.9766 2.9844 2.707-1.1445 0.73438-2.1523 1.6484-2.9844 2.707-0.53906 0.69141-1.0039 1.4375-1.3789 2.2266-0.375-0.78906-0.83594-1.5352-1.3789-2.2266-0.83203-1.0586-1.8438-1.9766-2.9844-2.707 1.1445-0.73438 2.1523-1.6484 2.9844-2.707zm56.043-5.0195c-4.3945 3.6641-15.074 3.9766-31.734 0.92578-4.1484-0.75781-6.7461-0.53516-8.9492-0.011719-3.7578-2.3359-5.2969-5.1914-5.8242-6.4531 0.75-0.12109 1.5-0.24219 2.2891-0.39453 6.4961-1.2734 10.656-0.34375 15.922 0.83203 4.6797 1.0469 10.156 2.2695 18.66 2.2695 3.3672 0 7.2188-0.19531 11.676-0.66797-0.24609 1.4062-0.91797 2.5586-2.043 3.4961zm-44.656-8.1602c-0.57813 0.11328-1.125 0.19922-1.6797 0.29297l2.8906-10.715 3.2969 0.89453-2.4844 9.1953c-0.65625 0.089844-1.3242 0.19922-2.0234 0.33594zm14.148 0.25391c-1.125-0.23047-2.2422-0.43359-3.3789-0.59375l1.8047-6.6758 3.2969 0.89453zm29.871-5.4766c-6.6172 1.8828-14.781-0.10156-18.07-1.0781l2.4492-3.2695c0.027344-0.039063 0.035156-0.082031 0.058594-0.125 1.9531 0.44922 3.8125 0.79297 5.5039 1.1016 4.4922 0.81641 7.8867 1.4375 10.059 3.3672zm-43.035-26.312c0.90234 1.2461 2.8047 3.7852 5.375 6.707l-6.3984 2.7422c-0.46484-3.25-0.61328-8.0586 1.0195-9.4453zm-20.711 8.8164c1.2852 0.16406 2.4453 0.95312 3.1172 2.1328 1.4922 2.6406 4.2461 5.7891 8.875 5.7891 6.0508 0 7.4961-3.3242 7.8398-4.8828l7.3789-3.1641c0.16406-0.070312 0.29297-0.17969 0.40234-0.30469 0.73828 0.79688 1.5195 1.6094 2.3398 2.418l-1.7188 1.7188c-0.44531 0.44531-0.44531 1.1641 0 1.6055 0.22266 0.22266 0.51172 0.33203 0.80469 0.33203 0.28906 0 0.58203-0.10937 0.80469-0.33203l1.7539-1.7539c0.8125 0.75391 1.6562 1.4961 2.5234 2.2148l-1.3398 1.3398c-0.44531 0.44531-0.44531 1.1641 0 1.6055 0.22266 0.22266 0.51172 0.33203 0.80469 0.33203 0.28906 0 0.58203-0.10937 0.80469-0.33203l1.5234-1.5234c0.91406 0.69141 1.8438 1.3438 2.793 1.9492l-1.3789 1.3789c-0.44531 0.44531-0.44531 1.1641 0 1.6055 0.22266 0.22266 0.51172 0.33203 0.80469 0.33203 0.28906 0 0.58203-0.10938 0.80469-0.33203l1.793-1.793c1.6602 0.89844 3.3555 1.625 5.0586 2.0859 0.011718 0.003906 0.023437 0.007813 0.039062 0.007813l-2.9219 3.8945c-0.21484 0.28906-0.28125 0.66016-0.17969 1.0078 0.10156 0.34375 0.36328 0.62109 0.69922 0.74219 0.37891 0.13672 6.9297 2.4805 14.07 2.4805 2.5938 0 5.2539-0.33203 7.7344-1.168 0.75781 1.3945 1.2031 3.2188 1.293 5.6953-15.57 1.6836-23.523-0.09375-29.938-1.5273-0.16016-0.035157-0.32031-0.070313-0.48047-0.10547l1.9883-7.3594c0.16406-0.60547-0.19531-1.2305-0.80078-1.3945l-5.4883-1.4883c-0.28906-0.078124-0.60156-0.039062-0.86328 0.11328-0.26172 0.14844-0.45312 0.39844-0.53125 0.6875l-2.1992 8.1328c-0.68359-0.046875-1.375-0.078125-2.0898-0.078125-0.62891 0-1.2812 0.027344-1.9453 0.070313l2.5508-9.4492c0.16406-0.60547-0.19531-1.2305-0.80078-1.3945l-5.4883-1.4883c-0.28906-0.078124-0.60156-0.039062-0.86328 0.11328-0.26172 0.14844-0.45312 0.39844-0.53125 0.6875l-3.4492 12.773c-2.6328 0.33984-4.9766 0.46484-7.0391 0.42969-0.55078-11.773-9.4023-16.801-11.57-17.855 0.64844-2.1133 1.6094-4.1758 3.0156-5.9492zm-3.9336 20.301c-0.003906-0.019531 0-0.039062-0.003906-0.0625-0.015625-0.085937-0.94141-5.9414 0.33984-12.043 2.3242 1.1836 9.2773 5.5703 9.8398 15.516-6.0234-0.47266-9.2109-2.2891-10.168-3.1797 0.003906-0.042969-0.003906-0.085937-0.003906-0.12891 0-0.035156 0-0.066406-0.003907-0.10156zm-2.2578 8.0781c0-3.2266 0.52734-5.0156 0.99609-5.9727 4.9062 4.0195 14.469 4.043 20.762 3.2656 0.37891 1.1016 1.6992 4.168 5.3242 6.9453-2.1484 0.68359-4.4219 1.3672-8.3047 1.4336-0.94922-1.3633-1.5625-2.9531-1.7383-4.6523-0.058593-0.57812-0.54688-1.0195-1.1289-1.0195s-1.0703 0.44141-1.1289 1.0195c-0.17578 1.6875-0.77734 3.2656-1.7188 4.625-9.5039-0.21094-13.062-1.75-13.062-5.6445zm1.1367 57.953v-8.4336l36.598-21.008c0.046875-0.027344 0.074218-0.070312 0.11719-0.10156h23.512c0.33594 0 0.65625-0.14844 0.875-0.41016l9.3555-11.227v8.6992l-57.117 32.48zm17.934 0 52.52-29.863v29.863zm45.703-12.5h-11.363c-0.62891 0-1.1367 0.50781-1.1367 1.1367v6.8164c0 0.62891 0.50781 1.1367 1.1367 1.1367h11.363c0.62891 0 1.1367-0.50781 1.1367-1.1367v-6.8164c0-0.62891-0.50781-1.1367-1.1367-1.1367zm-1.1367 6.8203h-9.0898v-4.5469h9.0898zm4.1172-80.77c1.6172 0.66016 3.0312 1.7188 4.082 3.0586 1.1367 1.4531 1.8438 3.2148 2.0352 5.0977 0.058594 0.57812 0.54688 1.0195 1.1289 1.0195s1.0703-0.44141 1.1289-1.0195c0.19531-1.8828 0.89844-3.6445 2.0352-5.0977 1.0508-1.3398 2.4609-2.3984 4.082-3.0586 0.42578-0.17578 0.70703-0.58984 0.70703-1.0508 0-0.46094-0.28125-0.87891-0.70703-1.0508-1.6172-0.66016-3.0312-1.7188-4.082-3.0586-1.1367-1.4531-1.8438-3.2148-2.0352-5.0977-0.058594-0.57812-0.54688-1.0195-1.1289-1.0195s-1.0703 0.44141-1.1289 1.0195c-0.19531 1.8828-0.89844 3.6445-2.0352 5.0977-1.0508 1.3398-2.4609 2.3984-4.082 3.0586-0.42578 0.17578-0.70703 0.58984-0.70703 1.0508 0 0.46094 0.28125 0.87891 0.70703 1.0508zm5.8672-3.7578c0.53906-0.69141 1.0039-1.4375 1.3789-2.2266 0.375 0.78906 0.83594 1.5352 1.3789 2.2266 0.83203 1.0586 1.8438 1.9766 2.9844 2.707-1.1445 0.73438-2.1523 1.6484-2.9844 2.707-0.53906 0.69141-1.0039 1.4375-1.3789 2.2266-0.375-0.78906-0.83594-1.5352-1.3789-2.2266-0.83203-1.0586-1.8438-1.9766-2.9844-2.707 1.1445-0.73437 2.1523-1.6484 2.9844-2.707zm-81.852 43.582-4.5469-1.1367c-0.60938-0.15234-0.98047-0.76953-0.82812-1.3789 0.15234-0.60938 0.76953-0.98047 1.3789-0.82813l4.5469 1.1367c0.60938 0.15234 0.98047 0.76953 0.82812 1.3789-0.12891 0.51562-0.58984 0.85937-1.1016 0.85937-0.089844 0-0.18359-0.011718-0.27734-0.035156zm-1.7695-9.5117c-0.37891-0.50391-0.27344-1.2148 0.22656-1.5898 0.5-0.37891 1.2148-0.27344 1.5898 0.22656l3.4102 4.5469c0.37891 0.50391 0.27344 1.2148-0.22656 1.5898-0.20312 0.15234-0.44141 0.22656-0.67969 0.22656-0.34766 0-0.6875-0.15625-0.91016-0.45312zm95.504 8.375-4.5469 1.1367c-0.09375 0.023438-0.18359 0.035157-0.27734 0.035157-0.50781 0-0.97266-0.34375-1.1016-0.85938-0.15234-0.60938 0.21875-1.2266 0.82812-1.3789l4.5469-1.1367c0.60547-0.15234 1.2266 0.21875 1.3789 0.82812s-0.21875 1.2266-0.82812 1.3789zm-3.0039-9.9648c0.50391 0.375 0.60547 1.0898 0.22656 1.5898l-3.4102 4.5469c-0.22266 0.29688-0.5625 0.45312-0.91016 0.45312-0.23828 0-0.47656-0.074219-0.67969-0.22656-0.50391-0.375-0.60547-1.0898-0.22656-1.5898l3.4102-4.5469c0.375-0.5 1.0898-0.60547 1.5898-0.22656z"/></svg>